<svg width="26" height="22" viewBox="0 0 26 22" fill="none" xmlns="http://www.w3.org/2000/svg">
<g clip-path="url(#clip0)">
<path d="M0.92406 7.28576L2.96822 5.2041V14.0155L0.868056 11.777C-0.308035 10.5223 -0.294034 8.5262 0.92406 7.28576Z" fill="#4DD9FF"/>
<path d="M6.77654 8.96824C6.77654 7.92741 7.60261 7.07194 8.63869 7.07194C9.66076 7.08619 10.5008 7.92741 10.5008 8.96824C10.5008 10.0091 9.67477 10.8645 8.63869 10.8645C7.60261 10.8645 6.77654 10.0233 6.77654 8.96824ZM17.7674 13.4452V14.2865C17.7674 14.5288 17.5714 14.7142 17.3474 14.7142C17.1093 14.7142 16.9273 14.5146 16.9273 14.2865V13.9728L16.5073 14.1154C14.2251 14.9138 11.7329 14.8995 9.45075 14.1011L9.08672 13.9728V14.2865C9.08672 14.5288 8.89071 14.7142 8.66669 14.7142C8.42867 14.7142 8.24666 14.5146 8.24666 14.2865V12.7751C8.24666 12.5327 8.42867 12.3474 8.66669 12.3474C8.7787 12.3474 8.8907 12.3901 8.96071 12.4757C9.04472 12.547 9.08672 12.661 9.08672 12.7751V13.1173L9.43675 13.2456C11.7189 14.0583 14.2111 14.0726 16.4933 13.2599L16.9133 13.1173V12.7751C16.9133 12.5327 17.0953 12.3474 17.3334 12.3474C17.4454 12.3474 17.5574 12.3901 17.6274 12.4757C17.6974 12.547 17.7534 12.661 17.7534 12.7751V13.3454C17.7534 13.3597 17.7534 13.3739 17.7534 13.4025C17.7674 13.4167 17.7674 13.431 17.7674 13.4452ZM17.3754 10.8645C16.3533 10.8645 15.5132 10.0233 15.5132 8.96824C15.5132 7.92741 16.3393 7.07194 17.3754 7.07194C18.3974 7.07194 19.2375 7.91316 19.2375 8.96824C19.2235 10.0233 18.3974 10.8645 17.3754 10.8645ZM19.8535 1.89631C18.6635 0.684381 17.0533 0 15.3732 0H10.6968C9.01671 0 7.40659 0.684381 6.2165 1.89631L4.25635 3.89242V15.3986L4.27035 15.4128L4.28435 15.4271V20.617C4.28435 21.6863 5.41844 22.3564 6.32851 21.8146L8.31666 20.6455L10.9629 19.0914C11.0049 19.0629 11.0469 19.0343 11.0889 19.0058H15.3312C17.0113 19.0058 18.6215 18.3214 19.8115 17.1095L22.2197 14.6572V4.32016L19.8535 1.89631ZM18.7475 3.62152C18.6775 3.69281 18.5795 3.73558 18.4674 3.73558C18.3694 3.73558 18.2714 3.69281 18.2014 3.62152C17.6834 3.09397 17.0673 2.70901 16.3953 2.49514V2.62346C16.3953 2.86585 16.1993 3.0512 15.9753 3.0512C15.8632 3.0512 15.7512 3.00842 15.6812 2.92288C15.6112 2.85159 15.5552 2.73752 15.5552 2.62346V2.30979C15.3872 2.29553 15.2192 2.28127 15.0372 2.28127H14.4211V2.62346C14.4211 2.86585 14.2251 3.0512 14.0011 3.0512C13.8891 3.0512 13.7771 3.00842 13.7071 2.92288C13.6371 2.85159 13.5811 2.73752 13.5811 2.62346V2.28127H12.447V2.62346C12.447 2.86585 12.251 3.0512 12.0269 3.0512C11.9149 3.0512 11.8029 3.00842 11.7329 2.92288C11.6489 2.85159 11.6069 2.73752 11.6069 2.62346V2.28127H10.9909C10.8229 2.28127 10.6408 2.29553 10.4728 2.30979V2.62346C10.4728 2.86585 10.2768 3.0512 10.0528 3.0512C9.94079 3.0512 9.82878 3.00842 9.75877 2.92288C9.67476 2.85159 9.63276 2.73752 9.63276 2.62346V2.49514C8.96071 2.70901 8.34466 3.09397 7.82662 3.62152C7.67261 3.77835 7.43459 3.77835 7.28058 3.62152C7.12657 3.46468 7.12657 3.22229 7.28058 3.06546C7.93863 2.39533 8.75069 1.91056 9.63276 1.68244V1.11212C9.63276 0.869734 9.82878 0.684381 10.0528 0.684381C10.2908 0.684381 10.4728 0.883992 10.4728 1.11212V1.51134C10.6408 1.49708 10.8089 1.48283 10.9909 1.48283H11.6069V1.11212C11.6069 0.869734 11.8029 0.684381 12.0269 0.684381C12.265 0.684381 12.447 0.883992 12.447 1.11212V1.49708H13.5811V1.11212C13.5811 0.869734 13.7631 0.684381 14.0011 0.684381C14.2391 0.684381 14.4211 0.883992 14.4211 1.11212V1.49708H15.0372C15.2052 1.49708 15.3872 1.51134 15.5552 1.5256V1.11212C15.5552 0.869734 15.7372 0.684381 15.9753 0.684381C16.2133 0.684381 16.3953 0.883992 16.3953 1.11212V1.66818C17.2774 1.91056 18.0894 2.38108 18.7475 3.0512C18.9015 3.20804 18.9015 3.46468 18.7475 3.62152Z" fill="#4DD9FF"/>
<path d="M25.0761 11.7627L23.522 13.3311V5.63184L23.536 5.64609L25.0761 7.21447C26.3082 8.46917 26.3082 10.5081 25.0761 11.7627Z" fill="#4DD9FF"/>
</g>
<defs>
<clipPath id="clip0">
<rect width="26" height="22" fill="white"/>
</clipPath>
</defs>
</svg>
