<svg width="59" height="50" viewBox="0 0 59 50" fill="none" xmlns="http://www.w3.org/2000/svg">
<g clip-path="url(#clip0)">
<path d="M2.09694 16.5586L6.73561 11.8275V31.8534L1.96986 26.7659C-0.698964 23.9144 -0.667193 19.3777 2.09694 16.5586Z" fill="white"/>
<path d="M15.3766 20.3824C15.3766 18.0168 17.2511 16.0726 19.6023 16.0726C21.9216 16.105 23.8279 18.0168 23.8279 20.3824C23.8279 22.7479 21.9534 24.6922 19.6023 24.6922C17.2511 24.6922 15.3766 22.7803 15.3766 20.3824ZM40.3174 30.5574V32.4692C40.3174 33.0201 39.8726 33.4413 39.3642 33.4413C38.8241 33.4413 38.4111 32.9877 38.4111 32.4692V31.7563L37.4579 32.0804C32.2792 33.895 26.6238 33.8626 21.445 32.048L20.6189 31.7563V32.4692C20.6189 33.0201 20.1741 33.4413 19.6658 33.4413C19.1257 33.4413 18.7126 32.9877 18.7126 32.4692V29.0343C18.7126 28.4835 19.1257 28.0622 19.6658 28.0622C19.92 28.0622 20.1741 28.1594 20.333 28.3539C20.5236 28.5159 20.6189 28.7751 20.6189 29.0343V29.8121L21.4132 30.1037C26.592 31.9507 32.2474 31.9831 37.4262 30.1361L38.3793 29.8121V29.0343C38.3793 28.4835 38.7923 28.0622 39.3325 28.0622C39.5866 28.0622 39.8408 28.1594 39.9997 28.3539C40.1585 28.5159 40.2856 28.7751 40.2856 29.0343V30.3305C40.2856 30.3629 40.2856 30.3953 40.2856 30.4601C40.3174 30.4925 40.3174 30.525 40.3174 30.5574ZM39.4278 24.6922C37.1084 24.6922 35.2021 22.7803 35.2021 20.3824C35.2021 18.0168 37.0767 16.0726 39.4278 16.0726C41.7471 16.0726 43.6534 17.9844 43.6534 20.3824C43.6216 22.7803 41.7471 24.6922 39.4278 24.6922ZM45.0514 4.30979C42.3508 1.55541 38.697 0 34.8844 0H24.2727C20.4601 0 16.8063 1.55541 14.1058 4.30979L9.65771 8.8464V34.9968L9.68949 35.0292L9.72126 35.0616V46.8568C9.72126 49.2871 12.2948 50.8101 14.3599 49.5787L18.8715 46.9216L24.8763 43.3895C24.9717 43.3247 25.067 43.2599 25.1623 43.1951H34.7891C38.6017 43.1951 42.2555 41.6397 44.956 38.8853L50.4208 33.3117V9.81853L45.0514 4.30979ZM42.5414 8.23072C42.3825 8.39274 42.1601 8.48995 41.906 8.48995C41.6836 8.48995 41.4612 8.39274 41.3023 8.23072C40.1268 7.03176 38.7288 6.15684 37.2038 5.67077V5.96241C37.2038 6.51329 36.759 6.93454 36.2506 6.93454C35.9964 6.93454 35.7423 6.83733 35.5834 6.6429C35.4245 6.48088 35.2975 6.22165 35.2975 5.96241V5.24951C34.9162 5.21711 34.5349 5.1847 34.1219 5.1847H32.724V5.96241C32.724 6.51329 32.2791 6.93454 31.7708 6.93454C31.5166 6.93454 31.2625 6.83733 31.1036 6.6429C30.9447 6.48088 30.8177 6.22165 30.8177 5.96241V5.1847H28.2441V5.96241C28.2441 6.51329 27.7993 6.93454 27.291 6.93454C27.0368 6.93454 26.7826 6.83733 26.6238 6.6429C26.4332 6.48088 26.3378 6.22165 26.3378 5.96241V5.1847H24.9399C24.5586 5.1847 24.1456 5.21711 23.7643 5.24951V5.96241C23.7643 6.51329 23.3195 6.93454 22.8112 6.93454C22.557 6.93454 22.3028 6.83733 22.144 6.6429C21.9534 6.48088 21.858 6.22165 21.858 5.96241V5.67077C20.333 6.15684 18.935 7.03176 17.7595 8.23072C17.41 8.58717 16.8699 8.58717 16.5204 8.23072C16.1709 7.87427 16.1709 7.3234 16.5204 6.96695C18.0137 5.44394 19.8564 4.34219 21.858 3.82372V2.52754C21.858 1.97667 22.3028 1.55541 22.8112 1.55541C23.3513 1.55541 23.7643 2.00907 23.7643 2.52754V3.43487C24.1456 3.40246 24.5269 3.37006 24.9399 3.37006H26.3378V2.52754C26.3378 1.97667 26.7826 1.55541 27.291 1.55541C27.8311 1.55541 28.2441 2.00907 28.2441 2.52754V3.40246H30.8177V2.52754C30.8177 1.97667 31.2307 1.55541 31.7708 1.55541C32.3109 1.55541 32.724 2.00907 32.724 2.52754V3.40246H34.1219C34.5032 3.40246 34.9162 3.43487 35.2975 3.46727V2.52754C35.2975 1.97667 35.7105 1.55541 36.2506 1.55541C36.7907 1.55541 37.2038 2.00907 37.2038 2.52754V3.79132C39.2054 4.34219 41.0481 5.41154 42.5414 6.93454C42.8909 7.29099 42.8909 7.87427 42.5414 8.23072Z" fill="white"/>
<path d="M56.9026 26.7336L53.376 30.2981V12.7997L53.4078 12.8321L56.9026 16.3966C59.6985 19.2482 59.6985 23.882 56.9026 26.7336Z" fill="white"/>
</g>
<defs>
<clipPath id="clip0">
<rect width="59" height="50" fill="white"/>
</clipPath>
</defs>
</svg>
